<?xml version="1.0" encoding="UTF-8"?>
<svg id="Layer_2" data-name="Layer 2" xmlns="http://www.w3.org/2000/svg" viewBox="0 0 312.05 166.85">
  <defs>
    <style>
      .cls-1 {
        stroke-width: .02px;
      }

      .cls-1, .cls-2, .cls-3, .cls-4, .cls-5, .cls-6, .cls-7, .cls-8, .cls-9, .cls-10 {
        stroke: #e7b948;
        stroke-miterlimit: 10;
      }

      .cls-1, .cls-6, .cls-7 {
        fill: none;
      }

      .cls-2 {
        stroke-width: .02px;
      }

      .cls-2, .cls-3, .cls-4, .cls-5, .cls-8, .cls-9, .cls-11 {
        fill: #ffcb4e;
      }

      .cls-3 {
        stroke-width: .11px;
      }

      .cls-4 {
        stroke-width: .08px;
      }

      .cls-5, .cls-6 {
        stroke-width: .1px;
      }

      .cls-7, .cls-8 {
        stroke-width: .1px;
      }

      .cls-9 {
        stroke-width: .09px;
      }

      .cls-12 {
        fill: #227d3e;
      }

      .cls-12, .cls-11 {
        stroke-width: 0px;
      }

      .cls-10 {
        stroke-width: .11px;
      }
    </style>
  </defs>
  <g id="Layer_1-2" data-name="Layer 1">
    <g>
      <g>
        <polygon class="cls-4" points="132 76.88 140.57 77.2 142.23 38.33 133.66 38.01 132 76.88"/>
        <g>
          <g>
            <path class="cls-11" d="m140.64,77.2s-.29.27-.28.27.02-.56.03-.56-.02.56-.01.56.02-.56.03-.56-.02.56-.01.56.03-.56.03-.56-.02.56-.01.56.03-.56.03-.56-.02.56-.01.56.03-.56.03-.56-.02.56-.01.56.03-.56.03-.56-.02.56,0,.56.03-.56.03-.56-.02.56,0,.56.03-.56.03-.56-.01.56,0,.56.03-.56.03-.56-.01.56,0,.56.03-.56.04-.56-.01.56,0,.56.03-.56.04-.56-.01.56,0,.56.03-.56.04-.56-.01.56,0,.56.03-.56.04-.56-.01.56,0,.56.03-.56.04-.56-.01.56,0,.56.03-.56.04-.56-.01.56,0,.56.03-.56.04-.56-.01.56,0,.56.03-.56.04-.56-.01.56,0,.56c0,0,.03-.56.03-.56,0,0-.01.56,0,.56,0,0,.03-.56.03-.56,0,0-.01.56,0,.56,0,0,.03-.56.04-.56,0,0-.01.56,0,.56s.03-.56.04-.56-.01.56,0,.56.03-.56.04-.56c.01,0-.01.56,0,.56s-.25-.29-.25-.3c.03-.42.58-.39.59-.81s-.54-.44-.52-.86.58-.4.59-.82-.54-.44-.52-.87.58-.4.59-.82-.54-.45-.52-.87.58-.4.59-.82-.54-.45-.52-.87.58-.4.59-.82-.54-.44-.52-.87.58-.4.59-.82-.54-.44-.52-.87.58-.4.59-.82-.54-.45-.52-.87.58-.4.59-.82-.54-.45-.52-.87.58-.4.59-.82-.54-.45-.52-.87.58-.4.59-.82-.54-.45-.52-.87.58-.4.59-.82-.54-.45-.52-.87.58-.4.59-.82-.54-.45-.52-.87.58-.4.59-.82-.54-.45-.52-.87.58-.4.59-.82-.54-.45-.52-.87.58-.4.59-.82-.54-.45-.52-.87.58-.4.59-.82-.54-.45-.52-.87.58-.4.59-.82-.54-.45-.52-.87.58-.4.59-.82-.54-.45-.52-.87.58-.4.59-.82-.54-.45-.52-.87.58-.4.59-.83-.54-.45-.52-.87.58-.4.59-.82-.54-.45-.52-.87.58-.4.59-.83-.54-.45-.52-.88.58-.4.59-.83-.54-.45-.52-.88c0,0,.29-.27.28-.27s-.02.56-.03.56.02-.56.01-.56-.02.56-.03.56.02-.56.01-.56-.03.56-.03.56.02-.56.01-.56-.03.56-.03.56.02-.56.01-.56-.03.56-.03.56.02-.56.01-.56-.03.56-.03.56.02-.56,0-.56-.03.56-.03.56.02-.56,0-.56-.03.56-.03.56.01-.56,0-.56-.03.56-.03.56.01-.56,0-.56-.03.56-.04.56.01-.56,0-.56-.03.56-.04.56.01-.56,0-.56-.03.56-.04.56.01-.56,0-.56-.03.56-.04.56.01-.56,0-.56-.03.56-.04.56.01-.56,0-.56-.03.56-.04.56.01-.56,0-.56-.03.56-.04.56.01-.56,0-.56-.03.56-.04.56.01-.56,0-.56c0,0-.03.56-.03.56,0,0,.01-.56,0-.56,0,0-.03.56-.03.56,0,0,.01-.56,0-.56,0,0-.03.56-.04.56,0,0,.01-.56,0-.56s-.03.56-.04.56.01-.56,0-.56-.03.56-.04.56c-.01,0,.01-.56,0-.56s.25.29.25.3c-.03.42-.58.39-.59.81s.54.44.52.86-.58.4-.59.82.54.44.52.87-.58.4-.59.82.54.45.52.87-.58.4-.59.82.54.45.52.87-.58.4-.59.82.54.44.52.87-.58.4-.59.82.54.44.52.87-.58.4-.59.82.54.45.52.87-.58.4-.59.82.54.45.52.87-.58.4-.59.82.54.45.52.87-.58.4-.59.82.54.45.52.87-.58.4-.59.82.54.45.52.87-.58.4-.59.82.54.45.52.87-.58.4-.59.82.54.45.52.87-.58.4-.59.82.54.45.52.87-.58.4-.59.82.54.45.52.87-.58.4-.59.82.54.45.52.87-.58.4-.59.82.54.45.52.87-.58.4-.59.82.54.45.52.87-.58.4-.59.82.54.45.52.87-.58.4-.59.83.54.45.52.87-.58.4-.59.82.54.45.52.87-.58.4-.59.83.54.45.52.88-.66.47-.59.89c.08.45.53.39.52.82Z"/>
            <path class="cls-1" d="m140.64,77.2s-.29.27-.28.27.02-.56.03-.56-.02.56-.01.56.02-.56.03-.56-.02.56-.01.56.03-.56.03-.56-.02.56-.01.56.03-.56.03-.56-.02.56-.01.56.03-.56.03-.56-.02.56-.01.56.03-.56.03-.56-.02.56,0,.56.03-.56.03-.56-.02.56,0,.56.03-.56.03-.56-.01.56,0,.56.03-.56.03-.56-.01.56,0,.56.03-.56.04-.56-.01.56,0,.56.03-.56.04-.56-.01.56,0,.56.03-.56.04-.56-.01.56,0,.56.03-.56.04-.56-.01.56,0,.56.03-.56.04-.56-.01.56,0,.56.03-.56.04-.56-.01.56,0,.56.03-.56.04-.56-.01.56,0,.56.03-.56.04-.56-.01.56,0,.56c0,0,.03-.56.03-.56,0,0-.01.56,0,.56,0,0,.03-.56.03-.56,0,0-.01.56,0,.56,0,0,.03-.56.04-.56,0,0-.01.56,0,.56s.03-.56.04-.56-.01.56,0,.56.03-.56.04-.56c.01,0-.01.56,0,.56s-.25-.29-.25-.3c.03-.42.58-.39.59-.81s-.54-.44-.52-.86.58-.4.59-.82-.54-.44-.52-.87.58-.4.59-.82-.54-.45-.52-.87.58-.4.59-.82-.54-.45-.52-.87.58-.4.59-.82-.54-.44-.52-.87.58-.4.59-.82-.54-.44-.52-.87.58-.4.59-.82-.54-.45-.52-.87.58-.4.59-.82-.54-.45-.52-.87.58-.4.59-.82-.54-.45-.52-.87.58-.4.59-.82-.54-.45-.52-.87.58-.4.59-.82-.54-.45-.52-.87.58-.4.59-.82-.54-.45-.52-.87.58-.4.59-.82-.54-.45-.52-.87.58-.4.59-.82-.54-.45-.52-.87.58-.4.59-.82-.54-.45-.52-.87.58-.4.59-.82-.54-.45-.52-.87.58-.4.59-.82-.54-.45-.52-.87.58-.4.59-.82-.54-.45-.52-.87.58-.4.59-.82-.54-.45-.52-.87.58-.4.59-.83-.54-.45-.52-.87.58-.4.59-.82-.54-.45-.52-.87.58-.4.59-.83-.54-.45-.52-.88.58-.4.59-.83-.54-.45-.52-.88c0,0,.29-.27.28-.27s-.02.56-.03.56.02-.56.01-.56-.02.56-.03.56.02-.56.01-.56-.03.56-.03.56.02-.56.01-.56-.03.56-.03.56.02-.56.01-.56-.03.56-.03.56.02-.56.01-.56-.03.56-.03.56.02-.56,0-.56-.03.56-.03.56.02-.56,0-.56-.03.56-.03.56.01-.56,0-.56-.03.56-.03.56.01-.56,0-.56-.03.56-.04.56.01-.56,0-.56-.03.56-.04.56.01-.56,0-.56-.03.56-.04.56.01-.56,0-.56-.03.56-.04.56.01-.56,0-.56-.03.56-.04.56.01-.56,0-.56-.03.56-.04.56.01-.56,0-.56-.03.56-.04.56.01-.56,0-.56-.03.56-.04.56.01-.56,0-.56c0,0-.03.56-.03.56,0,0,.01-.56,0-.56,0,0-.03.56-.03.56,0,0,.01-.56,0-.56,0,0-.03.56-.04.56,0,0,.01-.56,0-.56s-.03.56-.04.56.01-.56,0-.56-.03.56-.04.56c-.01,0,.01-.56,0-.56s.25.29.25.3c-.03.42-.58.39-.59.81s.54.44.52.86-.58.4-.59.82.54.44.52.87-.58.4-.59.82.54.45.52.87-.58.4-.59.82.54.45.52.87-.58.4-.59.82.54.44.52.87-.58.4-.59.82.54.44.52.87-.58.4-.59.82.54.45.52.87-.58.4-.59.82.54.45.52.87-.58.4-.59.82.54.45.52.87-.58.4-.59.82.54.45.52.87-.58.4-.59.82.54.45.52.87-.58.4-.59.82.54.45.52.87-.58.4-.59.82.54.45.52.87-.58.4-.59.82.54.45.52.87-.58.4-.59.82.54.45.52.87-.58.4-.59.82.54.45.52.87-.58.4-.59.82.54.45.52.87-.58.4-.59.82.54.45.52.87-.58.4-.59.82.54.45.52.87-.58.4-.59.83.54.45.52.87-.58.4-.59.82.54.45.52.87-.58.4-.59.83.54.45.52.88-.66.47-.59.89c.08.45.53.39.52.82Z"/>
          </g>
          <g>
            <path class="cls-11" d="m131.85,76.87s-.29.27-.28.27.02-.56.03-.56-.02.56-.01.56.02-.56.03-.56-.02.56-.01.56.03-.56.03-.56-.02.56-.01.56.03-.56.03-.56-.02.56-.01.56.03-.56.03-.56-.02.56-.01.56.03-.56.03-.56-.02.56,0,.56.03-.56.03-.56-.02.56,0,.56.03-.56.03-.56-.01.56,0,.56.03-.56.03-.56-.01.56,0,.56.03-.56.04-.56-.01.56,0,.56.03-.56.04-.56-.01.56,0,.56.03-.56.04-.56-.01.56,0,.56.03-.56.04-.56-.01.56,0,.56.03-.56.04-.56-.01.56,0,.56.03-.56.04-.56-.01.56,0,.56.03-.56.04-.56-.01.56,0,.56.03-.56.04-.56-.01.56,0,.56c0,0,.03-.56.03-.56,0,0-.01.56,0,.56,0,0,.03-.56.03-.56,0,0-.01.56,0,.56,0,0,.03-.56.04-.56,0,0-.01.56,0,.56s.03-.56.04-.56-.01.56,0,.56.03-.56.04-.56c.01,0-.01.56,0,.56s-.25-.29-.25-.3c.03-.42.58-.39.59-.81s-.54-.44-.52-.86.58-.4.59-.82-.54-.44-.52-.87.58-.4.59-.82-.54-.45-.52-.87.58-.4.59-.82-.54-.45-.52-.87.58-.4.59-.82-.54-.44-.52-.87.58-.4.59-.82-.54-.44-.52-.87.58-.4.59-.82-.54-.45-.52-.87.58-.4.59-.82-.54-.45-.52-.87.58-.4.59-.82-.54-.45-.52-.87.58-.4.59-.82-.54-.45-.52-.87.58-.4.59-.82-.54-.45-.52-.87.58-.4.59-.82-.54-.45-.52-.87.58-.4.59-.82-.54-.45-.52-.87.58-.4.59-.82-.54-.45-.52-.87.58-.4.59-.82-.54-.45-.52-.87.58-.4.59-.82-.54-.45-.52-.87.58-.4.59-.82-.54-.45-.52-.87.58-.4.59-.82-.54-.45-.52-.87.58-.4.59-.82-.54-.45-.52-.87.58-.4.59-.83-.54-.45-.52-.87.58-.4.59-.82-.54-.45-.52-.87.58-.4.59-.83-.54-.45-.52-.88.58-.4.59-.83-.54-.45-.52-.88c0,0,.29-.27.28-.27s-.02.56-.03.56.02-.56.01-.56-.02.56-.03.56.02-.56.01-.56-.03.56-.03.56.02-.56.01-.56-.03.56-.03.56.02-.56.01-.56-.03.56-.03.56.02-.56.01-.56-.03.56-.03.56.02-.56,0-.56-.03.56-.03.56.02-.56,0-.56-.03.56-.03.56.01-.56,0-.56-.03.56-.03.56.01-.56,0-.56-.03.56-.04.56.01-.56,0-.56-.03.56-.04.56.01-.56,0-.56-.03.56-.04.56.01-.56,0-.56-.03.56-.04.56.01-.56,0-.56-.03.56-.04.56.01-.56,0-.56-.03.56-.04.56.01-.56,0-.56-.03.56-.04.56.01-.56,0-.56-.03.56-.04.56.01-.56,0-.56c0,0-.03.56-.03.56,0,0,.01-.56,0-.56,0,0-.03.56-.03.56,0,0,.01-.56,0-.56,0,0-.03.56-.04.56,0,0,.01-.56,0-.56s-.03.56-.04.56.01-.56,0-.56-.03.56-.04.56c-.01,0,.01-.56,0-.56s.25.29.25.3c-.03.42-.58.39-.59.81s.54.44.52.86-.58.4-.59.82.54.44.52.87-.58.4-.59.82.54.45.52.87-.58.4-.59.82.54.45.52.87-.58.4-.59.82.54.44.52.87-.58.4-.59.82.54.44.52.87-.58.4-.59.82.54.45.52.87-.58.4-.59.82.54.45.52.87-.58.4-.59.82.54.45.52.87-.58.4-.59.82.54.45.52.87-.58.4-.59.82.54.45.52.87-.58.4-.59.82.54.45.52.87-.58.4-.59.82.54.45.52.87-.58.4-.59.82.54.45.52.87-.58.4-.59.82.54.45.52.87-.58.4-.59.82.54.45.52.87-.58.4-.59.82.54.45.52.87-.58.4-.59.82.54.45.52.87-.58.4-.59.82.54.45.52.87-.58.4-.59.83.54.45.52.87-.58.4-.59.82.54.45.52.87-.58.4-.59.83.54.45.52.88-.66.47-.59.89c.08.45.53.39.52.82Z"/>
            <path class="cls-1" d="m131.85,76.87s-.29.27-.28.27.02-.56.03-.56-.02.56-.01.56.02-.56.03-.56-.02.56-.01.56.03-.56.03-.56-.02.56-.01.56.03-.56.03-.56-.02.56-.01.56.03-.56.03-.56-.02.56-.01.56.03-.56.03-.56-.02.56,0,.56.03-.56.03-.56-.02.56,0,.56.03-.56.03-.56-.01.56,0,.56.03-.56.03-.56-.01.56,0,.56.03-.56.04-.56-.01.56,0,.56.03-.56.04-.56-.01.56,0,.56.03-.56.04-.56-.01.56,0,.56.03-.56.04-.56-.01.56,0,.56.03-.56.04-.56-.01.56,0,.56.03-.56.04-.56-.01.56,0,.56.03-.56.04-.56-.01.56,0,.56.03-.56.04-.56-.01.56,0,.56c0,0,.03-.56.03-.56,0,0-.01.56,0,.56,0,0,.03-.56.03-.56,0,0-.01.56,0,.56,0,0,.03-.56.04-.56,0,0-.01.56,0,.56s.03-.56.04-.56-.01.56,0,.56.03-.56.04-.56c.01,0-.01.56,0,.56s-.25-.29-.25-.3c.03-.42.58-.39.59-.81s-.54-.44-.52-.86.58-.4.59-.82-.54-.44-.52-.87.58-.4.59-.82-.54-.45-.52-.87.58-.4.59-.82-.54-.45-.52-.87.58-.4.59-.82-.54-.44-.52-.87.58-.4.59-.82-.54-.44-.52-.87.58-.4.59-.82-.54-.45-.52-.87.58-.4.59-.82-.54-.45-.52-.87.58-.4.59-.82-.54-.45-.52-.87.58-.4.59-.82-.54-.45-.52-.87.58-.4.59-.82-.54-.45-.52-.87.58-.4.59-.82-.54-.45-.52-.87.58-.4.59-.82-.54-.45-.52-.87.58-.4.59-.82-.54-.45-.52-.87.58-.4.59-.82-.54-.45-.52-.87.58-.4.59-.82-.54-.45-.52-.87.58-.4.59-.82-.54-.45-.52-.87.58-.4.59-.82-.54-.45-.52-.87.58-.4.59-.82-.54-.45-.52-.87.58-.4.59-.83-.54-.45-.52-.87.58-.4.59-.82-.54-.45-.52-.87.58-.4.59-.83-.54-.45-.52-.88.58-.4.59-.83-.54-.45-.52-.88c0,0,.29-.27.28-.27s-.02.56-.03.56.02-.56.01-.56-.02.56-.03.56.02-.56.01-.56-.03.56-.03.56.02-.56.01-.56-.03.56-.03.56.02-.56.01-.56-.03.56-.03.56.02-.56.01-.56-.03.56-.03.56.02-.56,0-.56-.03.56-.03.56.02-.56,0-.56-.03.56-.03.56.01-.56,0-.56-.03.56-.03.56.01-.56,0-.56-.03.56-.04.56.01-.56,0-.56-.03.56-.04.56.01-.56,0-.56-.03.56-.04.56.01-.56,0-.56-.03.56-.04.56.01-.56,0-.56-.03.56-.04.56.01-.56,0-.56-.03.56-.04.56.01-.56,0-.56-.03.56-.04.56.01-.56,0-.56-.03.56-.04.56.01-.56,0-.56c0,0-.03.56-.03.56,0,0,.01-.56,0-.56,0,0-.03.56-.03.56,0,0,.01-.56,0-.56,0,0-.03.56-.04.56,0,0,.01-.56,0-.56s-.03.56-.04.56.01-.56,0-.56-.03.56-.04.56c-.01,0,.01-.56,0-.56s.25.29.25.3c-.03.42-.58.39-.59.81s.54.44.52.86-.58.4-.59.82.54.44.52.87-.58.4-.59.82.54.45.52.87-.58.4-.59.82.54.45.52.87-.58.4-.59.82.54.44.52.87-.58.4-.59.82.54.44.52.87-.58.4-.59.82.54.45.52.87-.58.4-.59.82.54.45.52.87-.58.4-.59.82.54.45.52.87-.58.4-.59.82.54.45.52.87-.58.4-.59.82.54.45.52.87-.58.4-.59.82.54.45.52.87-.58.4-.59.82.54.45.52.87-.58.4-.59.82.54.45.52.87-.58.4-.59.82.54.45.52.87-.58.4-.59.82.54.45.52.87-.58.4-.59.82.54.45.52.87-.58.4-.59.82.54.45.52.87-.58.4-.59.82.54.45.52.87-.58.4-.59.83.54.45.52.87-.58.4-.59.82.54.45.52.87-.58.4-.59.83.54.45.52.88-.66.47-.59.89c.08.45.53.39.52.82Z"/>
          </g>
          <path class="cls-2" d="m136.53,75.06h.32c1.17.06,2.16-.8,2.2-1.89l1.56-36.44c.05-1.1-.86-2.02-2.03-2.07h-.32c-1.17-.06-2.16.8-2.2,1.89l-1.56,36.44c-.05,1.1.86,2.02,2.03,2.07Z"/>
        </g>
      </g>
      <g>
        <polygon class="cls-3" points="130.66 46.25 144.44 46.76 144.51 44.92 130.74 44.4 130.66 46.25"/>
        <path class="cls-3" d="m130.7,48.78l13.43.5c.41.02.76-.29.78-.67l.06-1.44c.02-.39-.31-.71-.72-.73l-13.43-.5c-.41-.02-.76.29-.78.67l-.06,1.44c-.02.39.31.71.72.73Z"/>
        <path class="cls-3" d="m130.87,44.84l13.43.5c.41.02.76-.29.78-.67l.06-1.44c.02-.39-.31-.71-.72-.73l-13.43-.5c-.41-.02-.76.29-.78.67l-.06,1.44c-.02.39.31.71.72.73Z"/>
      </g>
      <g>
        <g>
          <g>
            <path class="cls-5" d="m145.95,11.55l23.4.88c4.47.59,3.27-1.15,3.27-1.15-1.17-1.14-2.67-2.97-3.91-3.36l-22.57-.81c-1.31-.05-2.41.91-2.46,2.13h0c-.05,1.23.97,2.26,2.27,2.31Z"/>
            <g>
              <polygon class="cls-11" points="145.8 11.48 146.43 11.78 147.1 11.53 147.74 11.83 148.4 11.58 149.03 11.88 149.69 11.63 150.33 11.93 150.99 11.67 151.63 11.98 152.29 11.72 152.93 12.03 153.6 11.77 154.24 12.08 154.9 11.82 155.54 12.12 156.2 11.87 156.84 12.17 157.5 11.92 158.14 12.22 158.81 11.97 159.44 12.27 160.1 12.02 160.74 12.32 161.4 12.07 162.03 12.37 162.7 12.11 163.34 12.42 164 12.16 164.64 12.47 165.31 12.21 165.95 12.52 166.61 12.26 167.26 12.57 167.92 12.31 168.57 12.61 169.23 12.36 169.88 12.66 170.54 12.41 171.19 12.71 171.86 12.46 172.51 12.76 172.37 12.6 172.65 12.6 172.38 12.57 172.66 12.57 172.38 12.54 172.66 12.54 172.38 12.52 172.66 12.52 172.38 12.49 172.66 12.49 172.38 12.46 172.66 12.46 172.38 12.43 172.66 12.43 172.38 12.4 172.66 12.39 172.38 12.36 172.66 12.35 172.39 12.32 172.67 12.31 172.39 12.28 172.67 12.27 172.39 12.24 172.67 12.23 172.39 12.2 172.67 12.19 172.39 12.16 172.67 12.16 172.39 12.12 172.67 12.12 172.4 12.09 172.68 12.08 172.4 12.05 172.68 12.04 172.4 12.01 172.68 12 172.4 11.96 172.68 11.95 172.4 11.92 172.68 11.91 172.53 12.02 171.9 11.71 171.24 11.97 170.6 11.67 169.94 11.92 169.3 11.62 168.64 11.87 168 11.57 167.34 11.82 166.7 11.52 166.04 11.77 165.4 11.47 164.74 11.72 164.1 11.42 163.44 11.68 162.8 11.37 162.14 11.63 161.5 11.32 160.83 11.58 160.19 11.27 159.53 11.53 158.89 11.23 158.23 11.48 157.6 11.18 156.94 11.43 156.3 11.13 155.64 11.38 154.99 11.08 154.33 11.33 153.69 11.03 153.03 11.28 152.38 10.98 151.72 11.24 151.08 10.93 150.41 11.19 149.77 10.88 149.1 11.14 148.46 10.83 147.79 11.09 147.14 10.78 146.47 11.04 145.82 10.73 145.96 10.9 145.68 10.9 145.96 10.93 145.68 10.93 145.96 10.95 145.68 10.95 145.96 10.98 145.68 10.98 145.95 11.01 145.67 11.01 145.95 11.04 145.67 11.04 145.95 11.07 145.67 11.07 145.95 11.1 145.67 11.11 145.95 11.14 145.67 11.15 145.95 11.18 145.67 11.19 145.95 11.22 145.67 11.23 145.94 11.26 145.66 11.26 145.94 11.3 145.66 11.3 145.94 11.33 145.66 11.34 145.94 11.37 145.66 11.38 145.94 11.41 145.66 11.42 145.94 11.45 145.66 11.46 145.93 11.49 145.65 11.5 145.93 11.53 145.65 11.54 145.93 11.58 145.93 11.61 145.8 11.48"/>
              <polygon class="cls-6" points="145.8 11.48 146.43 11.78 147.1 11.53 147.74 11.83 148.4 11.58 149.03 11.88 149.69 11.63 150.33 11.93 150.99 11.67 151.63 11.98 152.29 11.72 152.93 12.03 153.6 11.77 154.24 12.08 154.9 11.82 155.54 12.12 156.2 11.87 156.84 12.17 157.5 11.92 158.14 12.22 158.81 11.97 159.44 12.27 160.1 12.02 160.74 12.32 161.4 12.07 162.03 12.37 162.7 12.11 163.34 12.42 164 12.16 164.64 12.47 165.31 12.21 165.95 12.52 166.61 12.26 167.26 12.57 167.92 12.31 168.57 12.61 169.23 12.36 169.88 12.66 170.54 12.41 171.19 12.71 171.86 12.46 172.51 12.76 172.37 12.6 172.65 12.6 172.38 12.57 172.66 12.57 172.38 12.54 172.66 12.54 172.38 12.52 172.66 12.52 172.38 12.49 172.66 12.49 172.38 12.46 172.66 12.46 172.38 12.43 172.66 12.43 172.38 12.4 172.66 12.39 172.38 12.36 172.66 12.35 172.39 12.32 172.67 12.31 172.39 12.28 172.67 12.27 172.39 12.24 172.67 12.23 172.39 12.2 172.67 12.19 172.39 12.16 172.67 12.16 172.39 12.12 172.67 12.12 172.4 12.09 172.68 12.08 172.4 12.05 172.68 12.04 172.4 12.01 172.68 12 172.4 11.96 172.68 11.95 172.4 11.92 172.68 11.91 172.53 12.02 171.9 11.71 171.24 11.97 170.6 11.67 169.94 11.92 169.3 11.62 168.64 11.87 168 11.57 167.34 11.82 166.7 11.52 166.04 11.77 165.4 11.47 164.74 11.72 164.1 11.42 163.44 11.68 162.8 11.37 162.14 11.63 161.5 11.32 160.83 11.58 160.19 11.27 159.53 11.53 158.89 11.23 158.23 11.48 157.6 11.18 156.94 11.43 156.3 11.13 155.64 11.38 154.99 11.08 154.33 11.33 153.69 11.03 153.03 11.28 152.38 10.98 151.72 11.24 151.08 10.93 150.41 11.19 149.77 10.88 149.1 11.14 148.46 10.83 147.79 11.09 147.14 10.78 146.47 11.04 145.82 10.73 145.96 10.9 145.68 10.9 145.96 10.93 145.68 10.93 145.96 10.95 145.68 10.95 145.96 10.98 145.68 10.98 145.95 11.01 145.67 11.01 145.95 11.04 145.67 11.04 145.95 11.07 145.67 11.07 145.95 11.1 145.67 11.11 145.95 11.14 145.67 11.15 145.95 11.18 145.67 11.19 145.95 11.22 145.67 11.23 145.94 11.26 145.66 11.26 145.94 11.3 145.66 11.3 145.94 11.33 145.66 11.34 145.94 11.37 145.66 11.38 145.94 11.41 145.66 11.42 145.94 11.45 145.66 11.46 145.93 11.49 145.65 11.5 145.93 11.53 145.65 11.54 145.93 11.58 145.93 11.61 145.8 11.48"/>
            </g>
          </g>
          <g>
            <polygon class="cls-8" points="147.52 20.03 168.68 26.07 170.4 20.75 149.25 14.71 147.52 20.03"/>
            <g>
              <polygon class="cls-11" points="148.94 15.27 149.37 15.69 149.96 15.57 150.4 15.98 150.99 15.86 151.43 16.27 152.02 16.15 152.45 16.57 153.04 16.45 153.48 16.86 154.07 16.74 154.51 17.15 155.1 17.03 155.54 17.45 156.14 17.33 156.57 17.74 157.17 17.62 157.6 18.04 158.19 17.91 158.63 18.33 159.22 18.21 159.66 18.62 160.25 18.5 160.69 18.92 161.28 18.79 161.71 19.21 162.31 19.09 162.75 19.5 163.34 19.38 163.78 19.8 164.37 19.68 164.81 20.09 165.41 19.97 165.85 20.39 166.44 20.27 166.88 20.68 167.48 20.56 167.92 20.98 168.52 20.86 168.96 21.28 169.56 21.16 170.01 21.58 169.92 21.38 170.19 21.44 169.93 21.34 170.21 21.4 169.95 21.3 170.22 21.36 169.96 21.26 170.23 21.32 169.97 21.21 170.25 21.28 169.99 21.17 170.26 21.24 170 21.13 170.27 21.2 170.01 21.09 170.28 21.16 170.03 21.05 170.3 21.11 170.04 21 170.31 21.07 170.06 20.96 170.33 21.02 170.07 20.91 170.34 20.98 170.09 20.87 170.36 20.93 170.1 20.82 170.37 20.89 170.11 20.78 170.39 20.84 170.13 20.73 170.4 20.79 170.14 20.69 170.42 20.75 170.16 20.64 170.43 20.7 170.18 20.59 170.45 20.65 170.19 20.54 170.47 20.6 170.3 20.66 169.87 20.24 169.27 20.37 168.84 19.95 168.24 20.07 167.81 19.66 167.22 19.78 166.78 19.36 166.19 19.49 165.75 19.07 165.16 19.19 164.72 18.78 164.13 18.9 163.69 18.48 163.1 18.6 162.66 18.19 162.07 18.31 161.63 17.89 161.04 18.02 160.6 17.6 160.01 17.72 159.57 17.31 158.98 17.43 158.55 17.01 157.96 17.14 157.52 16.72 156.93 16.84 156.49 16.43 155.89 16.55 155.45 16.13 154.86 16.25 154.42 15.84 153.83 15.96 153.38 15.54 152.79 15.66 152.35 15.25 151.76 15.37 151.32 14.95 150.72 15.07 150.27 14.65 149.67 14.77 149.22 14.35 149.31 14.55 149.04 14.49 149.3 14.59 149.03 14.53 149.29 14.63 149.02 14.57 149.27 14.68 149 14.61 149.26 14.72 148.99 14.65 149.25 14.76 148.98 14.69 149.23 14.8 148.96 14.73 149.22 14.84 148.95 14.77 149.21 14.88 148.93 14.82 149.19 14.93 148.92 14.86 149.18 14.97 148.9 14.91 149.16 15.02 148.89 14.96 149.15 15.06 148.88 15 149.13 15.11 148.86 15.04 149.12 15.15 148.85 15.09 149.1 15.2 148.83 15.14 149.09 15.25 148.82 15.18 149.07 15.29 148.8 15.23 149.06 15.34 148.78 15.28 149.04 15.39 149.03 15.43 148.94 15.27"/>
              <polygon class="cls-7" points="148.94 15.27 149.37 15.69 149.96 15.57 150.4 15.98 150.99 15.86 151.43 16.27 152.02 16.15 152.45 16.57 153.04 16.45 153.48 16.86 154.07 16.74 154.51 17.15 155.1 17.03 155.54 17.45 156.14 17.33 156.57 17.74 157.17 17.62 157.6 18.04 158.19 17.91 158.63 18.33 159.22 18.21 159.66 18.62 160.25 18.5 160.69 18.92 161.28 18.79 161.71 19.21 162.31 19.09 162.75 19.5 163.34 19.38 163.78 19.8 164.37 19.68 164.81 20.09 165.41 19.97 165.85 20.39 166.44 20.27 166.88 20.68 167.48 20.56 167.92 20.98 168.52 20.86 168.96 21.28 169.56 21.16 170.01 21.58 169.92 21.38 170.19 21.44 169.93 21.34 170.21 21.4 169.95 21.3 170.22 21.36 169.96 21.26 170.23 21.32 169.97 21.21 170.25 21.28 169.99 21.17 170.26 21.24 170 21.13 170.27 21.2 170.01 21.09 170.28 21.16 170.03 21.05 170.3 21.11 170.04 21 170.31 21.07 170.06 20.96 170.33 21.02 170.07 20.91 170.34 20.98 170.09 20.87 170.36 20.93 170.1 20.82 170.37 20.89 170.11 20.78 170.39 20.84 170.13 20.73 170.4 20.79 170.14 20.69 170.42 20.75 170.16 20.64 170.43 20.7 170.18 20.59 170.45 20.65 170.19 20.54 170.47 20.6 170.3 20.66 169.87 20.24 169.27 20.37 168.84 19.95 168.24 20.07 167.81 19.66 167.22 19.78 166.78 19.36 166.19 19.49 165.75 19.07 165.16 19.19 164.72 18.78 164.13 18.9 163.69 18.48 163.1 18.6 162.66 18.19 162.07 18.31 161.63 17.89 161.04 18.02 160.6 17.6 160.01 17.72 159.57 17.31 158.98 17.43 158.55 17.01 157.96 17.14 157.52 16.72 156.93 16.84 156.49 16.43 155.89 16.55 155.45 16.13 154.86 16.25 154.42 15.84 153.83 15.96 153.38 15.54 152.79 15.66 152.35 15.25 151.76 15.37 151.32 14.95 150.72 15.07 150.27 14.65 149.67 14.77 149.22 14.35 149.31 14.55 149.04 14.49 149.3 14.59 149.03 14.53 149.29 14.63 149.02 14.57 149.27 14.68 149 14.61 149.26 14.72 148.99 14.65 149.25 14.76 148.98 14.69 149.23 14.8 148.96 14.73 149.22 14.84 148.95 14.77 149.21 14.88 148.93 14.82 149.19 14.93 148.92 14.86 149.18 14.97 148.9 14.91 149.16 15.02 148.89 14.96 149.15 15.06 148.88 15 149.13 15.11 148.86 15.04 149.12 15.15 148.85 15.09 149.1 15.2 148.83 15.14 149.09 15.25 148.82 15.18 149.07 15.29 148.8 15.23 149.06 15.34 148.78 15.28 149.04 15.39 149.03 15.43 148.94 15.27"/>
            </g>
          </g>
          <path class="cls-5" d="m168.64,8.37c.23,0,.3-.29.09-.38l-14.44-5.64s-7.58-3.3-15.6-2.01c-.04,0-.06.02-.09.04-.46.34-4.86,3.61-5,6.86l-.35,13.14c0,.11.09.2.2.2l10.78.4c.11,0,.21-.08.22-.18l.8-12.78c0-.11.1-.19.21-.19l23.17.54Z"/>
        </g>
        <path class="cls-5" d="m147.2,19.41l-16.73.42c-.52.01-.99.27-1.24.69-.58.97-1.33,3.34-1.52,9.08l-.24,8.12c0,.25.05.49.18.71.35.6,1.21,1.68,2.89,1.82l14.02.24c.79.01,1.43.61,1.45,1.35.06,1.68.13,4.56-.02,6.27-.06.76-.75,1.33-1.55,1.28-1.01-.05-2.43-.13-3.5-.18-.83-.04-1.53.57-1.56,1.35h0c-.02.54.3,1.04.81,1.28l4.65,2.19c.5.23.81.71.82,1.23,0,0,.4,37.38.77,58.94.61,35.42.26,46.13.26,46.13-.45,3.2,2.65,6.16,5.56,6.16l3.31.32c1.47-.33,3.14-.47,4.66-2.07,1.8-1.89.84-22.01,1.39-40.76.54-18.39,4.3-81.45,4.3-81.45,0-.03,0-.07.01-.1l2.68-15.84c.12-.69-.33-1.35-1.04-1.55l-19.9-5.56c-.15-.04-.31-.06-.46-.06Z"/>
      </g>
      <rect class="cls-9" x="149.6" y="30.76" width="9.89" height="133.01" rx="4.79" ry="4.79" transform="translate(308.63 195.25) rotate(-179.73)"/>
      <rect class="cls-10" x="151.19" y="145.27" width="6.21" height="15.83" rx="3.01" ry="3.01" transform="translate(307.93 307.04) rotate(-179.75)"/>
      <path class="cls-12" d="m.15,16.73h62.54c3.7,0,7.75.12,12.15.35,4.4.24,8.35.53,11.85.88,3.5.35,6.4.76,8.7,1.23,8.25,1.64,14.56,4.58,18.93,8.83,4.37,4.24,6.56,9.51,6.56,15.79,0,4.31-1.05,8.16-3.15,11.54-2.1,3.38-5.19,6.23-9.26,8.55-4.08,2.32-9.06,4.09-14.96,5.31-5.9,1.22-12.55,1.83-19.95,1.83h-28.72v23.35c0,12.01,6.35,18.01,19.05,18.01h5.25v2.6H0v-2.6h3.67c12.7,0,19.05-6,19.05-18.01v-57.18c0-11.91-6.35-17.87-19.05-17.87H.15v-2.6Zm44.69,2.6v48.95h20.92c10.35,0,18-2,22.95-6.01,4.95-4.01,7.42-10.21,7.42-18.6,0-9.8-3.42-16.62-10.27-20.47-2.45-1.36-5.32-2.34-8.62-2.95-3.3-.61-7.4-.91-12.3-.91h-20.1Z"/>
      <path class="cls-12" d="m229.38,14.42h2.77l42.14,85.95c1.35,2.67,2.86,4.88,4.54,6.61,1.67,1.74,3.56,2.99,5.66,3.76,2.1.77,4.57,1.16,7.42,1.16h2.77v2.74h-60.81v-2.74h7.95c3.95,0,6.84-.5,8.66-1.51,1.82-1.01,2.74-2.57,2.74-4.68,0-1.31-.36-2.91-1.09-4.78-.72-1.87-2.31-5.27-4.76-10.2-.15-.28-.37-.75-.67-1.41-.3-.66-.63-1.29-.97-1.9l-1.72-3.59h-44.39l-3.37,7.32c-1.1,2.49-1.65,4.99-1.65,7.53,0,2.16.64,4.29,1.91,6.4,1.27,2.11,2.94,3.71,4.99,4.78,1.35.75,2.56,1.26,3.64,1.51,1.07.26,2.61.43,4.61.53v2.74h-42.67v-2.74c3.1-.33,5.56-.84,7.39-1.55,1.82-.7,3.86-1.87,6.11-3.52,5.3-3.84,10.47-11.09,15.52-21.73L229.38,14.42Zm-7.95,23l-20.55,43.82h41.62l-21.07-43.82Z"/>
      <ellipse class="cls-12" cx="103.02" cy="108.67" rx="6.74" ry="6.32"/>
      <ellipse class="cls-12" cx="305.32" cy="108.67" rx="6.74" ry="6.32"/>
      <g>
        <path class="cls-12" d="m.04,125.7h15.31c.91,0,1.9.03,2.97.08,1.08.06,2.04.13,2.9.21.86.08,1.57.18,2.13.3,2.02.39,3.57,1.1,4.64,2.12,1.07,1.02,1.61,2.28,1.61,3.79,0,1.04-.26,1.96-.77,2.77-.51.81-1.27,1.49-2.27,2.05-1,.56-2.22.98-3.66,1.27-1.44.29-3.07.44-4.88.44h-7.03v5.61c0,2.88,1.55,4.32,4.66,4.32h1.29v.62H0v-.62h.9c3.11,0,4.66-1.44,4.66-4.32v-13.73c0-2.86-1.55-4.29-4.66-4.29H.04v-.63Zm10.94.63v11.75h5.12c2.53,0,4.41-.48,5.62-1.44,1.21-.96,1.82-2.45,1.82-4.47,0-2.35-.84-3.99-2.52-4.91-.6-.33-1.3-.56-2.11-.71s-1.81-.22-3.01-.22h-4.92Z"/>
        <path class="cls-12" d="m32.04,125.7h17.5v.63h-1.85c-1.58,0-2.75.35-3.51,1.05s-1.14,1.78-1.14,3.24v18.05h6.65c1.31,0,2.55-.27,3.71-.8,1.16-.53,2.17-1.28,3.03-2.24.51-.6.97-1.19,1.36-1.77.39-.59.76-1.29,1.12-2.13.35-.83.7-1.79,1.05-2.87h.68v10.43h-28.59l-.04-.62h.95c3.11,0,4.66-1.44,4.66-4.32v-13.73c0-2.86-1.55-4.29-4.66-4.29h-.92v-.63Z"/>
        <path class="cls-12" d="m63.39,125.7h17.79v.63h-2.04c-1.57,0-2.74.35-3.51,1.06-.77.7-1.16,1.78-1.16,3.23v11.97c0,1.36.34,2.53,1.03,3.51.69.98,1.67,1.73,2.96,2.26,1.29.53,2.82.79,4.59.79,1.55,0,3.01-.2,4.35-.62,1.35-.41,2.42-.98,3.21-1.7,1.46-1.37,2.19-3.3,2.19-5.77v-8.44c0-2.7-.86-4.54-2.57-5.5-.49-.28-1-.48-1.54-.59-.54-.11-1.32-.18-2.33-.2v-.63h12.45v.63c-.77.06-1.38.15-1.84.29s-.92.36-1.4.68c-.7.48-1.23,1.13-1.6,1.93-.37.8-.55,1.75-.55,2.84v9.4c0,2.5-.74,4.41-2.22,5.74-.82.72-1.7,1.24-2.63,1.55-1.96.68-4.29,1.01-7,1.01-2,0-3.81-.18-5.44-.54-1.63-.36-2.97-.87-4.04-1.54-2.01-1.27-3.01-3.09-3.01-5.47v-11.61c0-2.86-1.56-4.29-4.66-4.29h-1.05v-.63Z"/>
        <path class="cls-12" d="m100.35,125.7h10.72l9.66,18.05,9.58-18.05h10.12v.63h-.94c-1.58,0-2.75.35-3.52,1.06-.77.7-1.15,1.78-1.15,3.23v13.73c0,1.44.39,2.52,1.16,3.22.77.71,1.94,1.06,3.51,1.06h.94v.66h-16.58v-.66h1.1c1.57,0,2.73-.35,3.5-1.06.76-.7,1.15-1.78,1.15-3.23v-16.04h-.07l-11.02,20.98h-.62l-11.15-20.92h-.07v15.21c0,1.06.22,1.96.66,2.69.44.74,1.09,1.31,1.95,1.7.86.4,1.9.62,3.12.65v.66h-12.05v-.66h.26c1.65,0,2.95-.44,3.89-1.33s1.41-2.09,1.41-3.61v-13.07c0-1.46-.38-2.54-1.14-3.24-.76-.7-1.93-1.05-3.53-1.05h-.9v-.63Z"/>
      </g>
      <g>
        <path class="cls-12" d="m165.9,124.22h19.96c1.55,0,3.04.14,4.48.42s2.57.65,3.39,1.12c1.01.55,1.8,1.22,2.36,2,.56.78.84,1.62.84,2.52,0,1.46-.88,2.72-2.63,3.78-.7.43-1.46.79-2.26,1.08-.81.29-1.94.61-3.41.99v.07c1.87.32,3.41.71,4.62,1.17,3.3,1.34,4.95,3.18,4.95,5.52,0,1.29-.5,2.42-1.49,3.38s-2.41,1.7-4.26,2.22c-1.85.52-4.02.78-6.53.78h-20.02v-.7h.8c1.68,0,2.92-.37,3.73-1.12.81-.75,1.22-1.89,1.22-3.43v-14.57c0-1.55-.41-2.71-1.22-3.46-.81-.75-2.06-1.13-3.73-1.13h-.8v-.63Zm11.5.63v10.97h5.91c4.85,0,7.27-1.94,7.27-5.82,0-1.74-.52-3.04-1.55-3.88s-2.63-1.26-4.79-1.26h-6.84Zm0,11.67v12.11h6.12c2.59,0,4.57-.53,5.94-1.59,1.38-1.06,2.07-2.56,2.07-4.51,0-1.66-.56-2.98-1.68-3.96-.85-.78-1.88-1.31-3.1-1.61-1.22-.3-3.01-.45-5.36-.45h-4Z"/>
        <path class="cls-12" d="m201.88,149.08h.76c1.68,0,2.92-.37,3.73-1.12.81-.75,1.22-1.89,1.22-3.43.1-.65.18-1.22.24-1.71.06-.5.09-1.06.11-1.7s.01-1.44,0-2.41c-.05-4.09-.18-7.16-.39-9.23-.08-.84-.22-1.49-.44-1.95s-.54-.85-.96-1.16c-.78-.63-1.95-.95-3.51-.95h-.76v-.66h17.15v.66h-.76c-1.68,0-2.92.37-3.72,1.11s-1.21,1.89-1.21,3.44v14.57c0,1.54.41,2.69,1.22,3.43.81.75,2.05,1.12,3.71,1.12h.76v.7h-17.15v-.7Z"/>
        <path class="cls-12" d="m222.43,124.49h10.93l18.93,18.03v-10.79c0-1.31-.24-2.46-.73-3.45s-1.19-1.74-2.11-2.25c-.49-.29-.99-.49-1.49-.61s-1.2-.21-2.1-.27v-.66h13.49v.66h-.27c-1.96,0-3.46.57-4.48,1.72-1.03,1.15-1.54,2.81-1.54,5v17.9h-.64l-23.51-22.2v14.87c0,1.45.19,2.6.57,3.47.38.87.99,1.54,1.83,2.03.69.38,1.53.63,2.51.73.55.08,1.33.14,2.34.18v.66h-14.21v-.66c1.46-.07,2.64-.31,3.56-.71s1.59-.99,2.03-1.78c.44-.79.65-1.77.65-2.94v-14.16c0-.87-.21-1.61-.63-2.22-.42-.61-1.04-1.08-1.84-1.41s-1.78-.49-2.92-.49h-.35v-.66Z"/>
        <path class="cls-12" d="m292.4,124.36h.72l.2,10.81h-.64c-.44-1.3-.85-2.34-1.23-3.11-.38-.77-.79-1.45-1.25-2.03-1.27-1.71-2.88-3.06-4.82-4.05-1.94-.99-3.94-1.49-5.99-1.49-1.07,0-2.12.18-3.18.54-1.05.36-1.9.84-2.55,1.43-1.08.99-1.86,2.36-2.35,4.1-.49,1.75-.73,4-.73,6.76,0,.82.04,1.64.12,2.45.08.81.18,1.53.31,2.16.13.63.29,1.24.49,1.85.19.6.41,1.1.64,1.48.4.62.86,1.16,1.37,1.63.51.47,1.12.87,1.81,1.22.7.35,1.43.6,2.21.76.78.16,1.6.24,2.46.24,1.1,0,2.21-.13,3.31-.38,1.1-.26,1.99-.59,2.67-1.01,1.29-.81,1.93-1.9,1.93-3.26v-1.29c0-3.03-1.65-4.55-4.95-4.55h-2.36v-.66h18.63v.66h-.62c-1.68,0-2.92.37-3.73,1.12-.81.75-1.22,1.89-1.22,3.43v5.88h-.72c-.58-.5-1.09-.84-1.53-1-.44-.17-.98-.25-1.63-.25-.57,0-1.1.05-1.59.15-.49.1-1.17.32-2.04.65-1.42.47-2.54.78-3.37.94-.83.16-1.85.24-3.06.24-2.29,0-4.42-.32-6.4-.95s-3.7-1.53-5.17-2.7c-1.46-1.17-2.6-2.54-3.4-4.11-.81-1.58-1.21-3.27-1.21-5.09,0-1.1.16-2.18.47-3.25.31-1.07.76-2.06,1.34-2.98.58-.92,1.31-1.79,2.18-2.62,1.01-.92,2.13-1.7,3.34-2.33,1.22-.63,2.5-1.12,3.86-1.47,1.36-.35,2.71-.52,4.06-.52s2.67.16,3.97.47c1.29.32,2.71.83,4.26,1.53,1.16.54,1.97.81,2.44.81s.95-.17,1.41-.52c.46-.35.97-.91,1.53-1.68Z"/>
      </g>
    </g>
  </g>
</svg>