<?xml version="1.0" encoding="UTF-8"?>
<svg id="Layer_2" data-name="Layer 2" xmlns="http://www.w3.org/2000/svg" viewBox="0 0 149.52 80">
  <defs>
    <style>
      .cls-1 {
        stroke-width: .02px;
      }

      .cls-1, .cls-2, .cls-3, .cls-4, .cls-5, .cls-6, .cls-7, .cls-8, .cls-9, .cls-10 {
        stroke: #e7b948;
        stroke-miterlimit: 10;
      }

      .cls-1, .cls-6, .cls-8 {
        fill: none;
      }

      .cls-2 {
        stroke-width: .02px;
      }

      .cls-2, .cls-3, .cls-4, .cls-5, .cls-9, .cls-10, .cls-11 {
        fill: #ffcb4e;
      }

      .cls-3 {
        stroke-width: .11px;
      }

      .cls-4 {
        stroke-width: .08px;
      }

      .cls-5, .cls-6 {
        stroke-width: .1px;
      }

      .cls-7 {
        fill: #fff;
        stroke-width: .11px;
      }

      .cls-8, .cls-9 {
        stroke-width: .1px;
      }

      .cls-10 {
        stroke-width: .09px;
      }

      .cls-12 {
        fill: #227d3e;
      }

      .cls-12, .cls-11 {
        stroke-width: 0px;
      }
    </style>
  </defs>
  <g id="Layer_1-2" data-name="Layer 1">
    <g>
      <g>
        <polygon class="cls-4" points="63.25 36.86 67.35 37.02 68.15 18.39 64.04 18.24 63.25 36.86"/>
        <g>
          <g>
            <path class="cls-11" d="m67.53,37.02s-.29.27-.29.27.02-.56.02-.56-.02.56-.02.56.02-.56.02-.56-.02.56-.02.56.02-.56.03-.56-.02.56-.02.56.02-.56.03-.56-.02.56-.02.56.02-.56.03-.56-.02.56-.02.56.02-.56.03-.56-.02.56-.02.56.02-.56.03-.56-.02.56-.02.56.02-.56.03-.56-.02.56-.01.56.02-.56.03-.56-.02.56-.01.56.02-.56.03-.56-.02.56-.01.56.02-.56.03-.56c0,0-.02.56-.02.56,0,0,.02-.56.02-.56,0,0-.02.56-.02.56,0,0,.02-.56.02-.56,0,0-.02.56-.02.56,0,0,.02-.56.02-.56,0,0-.02.56-.02.56,0,0,.02-.56.03-.56,0,0-.02.56-.02.56,0,0,.02-.56.03-.56,0,0-.02.56-.02.56,0,0,.02-.56.03-.56,0,0-.02.56-.01.56,0,0,.02-.56.03-.56,0,0-.02.56-.01.56,0,0,.03-.56.03-.56,0,0-.02.56,0,.56,0,0,.03-.56.03-.56,0,0-.01.56,0,.56s.03-.56.03-.56c0,0-.02.56-.01.56,0,0,.03-.56.03-.56,0,0-.01.56,0,.56s-.25-.29-.25-.3c.02-.2.57-.16.57-.37s-.55-.23-.54-.43.57-.18.58-.38-.55-.23-.54-.43.57-.18.58-.38-.55-.23-.54-.43.57-.18.58-.38-.55-.23-.54-.43.57-.18.58-.38-.55-.23-.54-.43.57-.18.58-.38-.55-.23-.54-.43.57-.18.58-.38-.55-.23-.54-.43.57-.18.58-.38-.55-.22-.54-.42.57-.18.57-.37-.55-.22-.54-.42.57-.18.57-.38-.55-.22-.54-.42.57-.18.58-.38-.55-.23-.54-.43.57-.18.58-.38-.55-.23-.54-.43.57-.18.58-.38-.55-.23-.54-.43.57-.18.58-.38-.55-.23-.54-.43.57-.18.58-.38-.55-.23-.54-.43.57-.18.58-.38-.55-.23-.54-.43.57-.18.58-.38-.55-.23-.54-.43.57-.18.58-.38-.55-.23-.54-.43.57-.18.58-.38-.55-.23-.54-.43.57-.18.58-.38-.55-.23-.54-.43.57-.18.58-.39-.55-.23-.54-.43.57-.18.58-.39-.55-.23-.54-.44.57-.18.58-.39-.55-.23-.54-.43c0,0,.29-.27.29-.27s-.02.56-.02.56.02-.56.02-.56-.02.56-.02.56.02-.56.02-.56-.02.56-.03.56.02-.56.02-.56-.02.56-.03.56.02-.56.02-.56-.02.56-.03.56.02-.56.02-.56-.02.56-.03.56.02-.56.02-.56-.02.56-.03.56.02-.56.02-.56-.02.56-.03.56.02-.56.01-.56-.02.56-.03.56.02-.56.01-.56-.02.56-.03.56.02-.56.01-.56-.02.56-.03.56c0,0,.02-.56.02-.56,0,0-.02.56-.02.56,0,0,.02-.56.02-.56,0,0-.02.56-.02.56,0,0,.02-.56.02-.56,0,0-.02.56-.02.56,0,0,.02-.56.02-.56,0,0-.02.56-.03.56,0,0,.02-.56.02-.56,0,0-.02.56-.03.56,0,0,.02-.56.02-.56,0,0-.02.56-.03.56,0,0,.02-.56.01-.56,0,0-.02.56-.03.56,0,0,.02-.56.01-.56,0,0-.03.56-.03.56,0,0,.02-.56,0-.56,0,0-.03.56-.03.56,0,0,.01-.56,0-.56s-.03.56-.03.56c0,0,.02-.56.01-.56,0,0-.03.56-.03.56,0,0,.01-.56,0-.56s.25.29.25.3c-.02.2-.57.16-.57.37s.55.23.54.43-.57.18-.58.38.55.23.54.43-.57.18-.58.38.55.23.54.43-.57.18-.58.38.55.23.54.43-.57.18-.58.38.55.23.54.43-.57.18-.58.38.55.23.54.43-.57.18-.58.38.55.23.54.43-.57.18-.58.38.55.22.54.42-.57.18-.57.37.55.22.54.42-.57.18-.57.38.55.22.54.42-.57.18-.58.38.55.23.54.43-.57.18-.58.38.55.23.54.43-.57.18-.58.38.55.23.54.43-.57.18-.58.38.55.23.54.43-.57.18-.58.38.55.23.54.43-.57.18-.58.38.55.23.54.43-.57.18-.58.38.55.23.54.43-.57.18-.58.38.55.23.54.43-.57.18-.58.38.55.23.54.43-.57.18-.58.38.55.23.54.43-.57.18-.58.39.55.23.54.43-.57.18-.58.39.55.23.54.44-.63.31-.56.5c.1.24.53.11.52.32Z"/>
            <path class="cls-1" d="m67.53,37.02s-.29.27-.29.27.02-.56.02-.56-.02.56-.02.56.02-.56.02-.56-.02.56-.02.56.02-.56.03-.56-.02.56-.02.56.02-.56.03-.56-.02.56-.02.56.02-.56.03-.56-.02.56-.02.56.02-.56.03-.56-.02.56-.02.56.02-.56.03-.56-.02.56-.02.56.02-.56.03-.56-.02.56-.01.56.02-.56.03-.56-.02.56-.01.56.02-.56.03-.56-.02.56-.01.56.02-.56.03-.56c0,0-.02.56-.02.56,0,0,.02-.56.02-.56,0,0-.02.56-.02.56,0,0,.02-.56.02-.56,0,0-.02.56-.02.56,0,0,.02-.56.02-.56,0,0-.02.56-.02.56,0,0,.02-.56.03-.56,0,0-.02.56-.02.56,0,0,.02-.56.03-.56,0,0-.02.56-.02.56,0,0,.02-.56.03-.56,0,0-.02.56-.01.56,0,0,.02-.56.03-.56,0,0-.02.56-.01.56,0,0,.03-.56.03-.56,0,0-.02.56,0,.56,0,0,.03-.56.03-.56,0,0-.01.56,0,.56s.03-.56.03-.56c0,0-.02.56-.01.56,0,0,.03-.56.03-.56,0,0-.01.56,0,.56s-.25-.29-.25-.3c.02-.2.57-.16.57-.37s-.55-.23-.54-.43.57-.18.58-.38-.55-.23-.54-.43.57-.18.58-.38-.55-.23-.54-.43.57-.18.58-.38-.55-.23-.54-.43.57-.18.58-.38-.55-.23-.54-.43.57-.18.58-.38-.55-.23-.54-.43.57-.18.58-.38-.55-.23-.54-.43.57-.18.58-.38-.55-.22-.54-.42.57-.18.57-.37-.55-.22-.54-.42.57-.18.57-.38-.55-.22-.54-.42.57-.18.58-.38-.55-.23-.54-.43.57-.18.58-.38-.55-.23-.54-.43.57-.18.58-.38-.55-.23-.54-.43.57-.18.58-.38-.55-.23-.54-.43.57-.18.58-.38-.55-.23-.54-.43.57-.18.58-.38-.55-.23-.54-.43.57-.18.58-.38-.55-.23-.54-.43.57-.18.58-.38-.55-.23-.54-.43.57-.18.58-.38-.55-.23-.54-.43.57-.18.58-.38-.55-.23-.54-.43.57-.18.58-.39-.55-.23-.54-.43.57-.18.58-.39-.55-.23-.54-.44.57-.18.58-.39-.55-.23-.54-.43c0,0,.29-.27.29-.27s-.02.56-.02.56.02-.56.02-.56-.02.56-.02.56.02-.56.02-.56-.02.56-.03.56.02-.56.02-.56-.02.56-.03.56.02-.56.02-.56-.02.56-.03.56.02-.56.02-.56-.02.56-.03.56.02-.56.02-.56-.02.56-.03.56.02-.56.02-.56-.02.56-.03.56.02-.56.01-.56-.02.56-.03.56.02-.56.01-.56-.02.56-.03.56.02-.56.01-.56-.02.56-.03.56c0,0,.02-.56.02-.56,0,0-.02.56-.02.56,0,0,.02-.56.02-.56,0,0-.02.56-.02.56,0,0,.02-.56.02-.56,0,0-.02.56-.02.56,0,0,.02-.56.02-.56,0,0-.02.56-.03.56,0,0,.02-.56.02-.56,0,0-.02.56-.03.56,0,0,.02-.56.02-.56,0,0-.02.56-.03.56,0,0,.02-.56.01-.56,0,0-.02.56-.03.56,0,0,.02-.56.01-.56,0,0-.03.56-.03.56,0,0,.02-.56,0-.56,0,0-.03.56-.03.56,0,0,.01-.56,0-.56s-.03.56-.03.56c0,0,.02-.56.01-.56,0,0-.03.56-.03.56,0,0,.01-.56,0-.56s.25.29.25.3c-.02.2-.57.16-.57.37s.55.23.54.43-.57.18-.58.38.55.23.54.43-.57.18-.58.38.55.23.54.43-.57.18-.58.38.55.23.54.43-.57.18-.58.38.55.23.54.43-.57.18-.58.38.55.23.54.43-.57.18-.58.38.55.23.54.43-.57.18-.58.38.55.22.54.42-.57.18-.57.37.55.22.54.42-.57.18-.57.38.55.22.54.42-.57.18-.58.38.55.23.54.43-.57.18-.58.38.55.23.54.43-.57.18-.58.38.55.23.54.43-.57.18-.58.38.55.23.54.43-.57.18-.58.38.55.23.54.43-.57.18-.58.38.55.23.54.43-.57.18-.58.38.55.23.54.43-.57.18-.58.38.55.23.54.43-.57.18-.58.38.55.23.54.43-.57.18-.58.38.55.23.54.43-.57.18-.58.39.55.23.54.43-.57.18-.58.39.55.23.54.44-.63.31-.56.5c.1.24.53.11.52.32Z"/>
          </g>
          <g>
            <path class="cls-11" d="m63.32,36.86s-.29.27-.29.27.02-.56.02-.56-.02.56-.02.56.02-.56.02-.56-.02.56-.02.56.02-.56.03-.56-.02.56-.02.56.02-.56.03-.56-.02.56-.02.56.02-.56.03-.56-.02.56-.02.56.02-.56.03-.56-.02.56-.02.56.02-.56.03-.56-.02.56-.02.56.02-.56.03-.56-.02.56-.01.56.02-.56.03-.56-.02.56-.01.56.02-.56.03-.56-.02.56-.01.56.02-.56.03-.56c0,0-.02.56-.02.56,0,0,.02-.56.02-.56,0,0-.02.56-.02.56,0,0,.02-.56.02-.56,0,0-.02.56-.02.56,0,0,.02-.56.02-.56,0,0-.02.56-.02.56,0,0,.02-.56.03-.56,0,0-.02.56-.02.56,0,0,.02-.56.03-.56,0,0-.02.56-.02.56,0,0,.02-.56.03-.56,0,0-.02.56-.01.56,0,0,.02-.56.03-.56,0,0-.02.56-.01.56,0,0,.03-.56.03-.56,0,0-.02.56,0,.56,0,0,.03-.56.03-.56,0,0-.01.56,0,.56s.03-.56.03-.56c0,0-.02.56-.01.56,0,0,.03-.56.03-.56,0,0-.01.56,0,.56s-.25-.29-.25-.3c.02-.2.57-.16.57-.37s-.55-.23-.54-.43.57-.18.58-.38-.55-.23-.54-.43.57-.18.58-.38-.55-.23-.54-.43.57-.18.58-.38-.55-.23-.54-.43.57-.18.58-.38-.55-.23-.54-.43.57-.18.58-.38-.55-.23-.54-.43.57-.18.58-.38-.55-.23-.54-.43.57-.18.58-.38-.55-.22-.54-.42.57-.18.57-.37-.55-.22-.54-.42.57-.18.57-.38-.55-.22-.54-.42.57-.18.58-.38-.55-.23-.54-.43.57-.18.58-.38-.55-.23-.54-.43.57-.18.58-.38-.55-.23-.54-.43.57-.18.58-.38-.55-.23-.54-.43.57-.18.58-.38-.55-.23-.54-.43.57-.18.58-.38-.55-.23-.54-.43.57-.18.58-.38-.55-.23-.54-.43.57-.18.58-.38-.55-.23-.54-.43.57-.18.58-.38-.55-.23-.54-.43.57-.18.58-.38-.55-.23-.54-.43.57-.18.58-.39-.55-.23-.54-.43.57-.18.58-.39-.55-.23-.54-.44.57-.18.58-.39-.55-.23-.54-.43c0,0,.29-.27.29-.27s-.02.56-.02.56.02-.56.02-.56-.02.56-.02.56.02-.56.02-.56-.02.56-.03.56.02-.56.02-.56-.02.56-.03.56.02-.56.02-.56-.02.56-.03.56.02-.56.02-.56-.02.56-.03.56.02-.56.02-.56-.02.56-.03.56.02-.56.02-.56-.02.56-.03.56.02-.56.01-.56-.02.56-.03.56.02-.56.01-.56-.02.56-.03.56.02-.56.01-.56-.02.56-.03.56c0,0,.02-.56.02-.56,0,0-.02.56-.02.56,0,0,.02-.56.02-.56,0,0-.02.56-.02.56,0,0,.02-.56.02-.56,0,0-.02.56-.02.56,0,0,.02-.56.02-.56,0,0-.02.56-.03.56,0,0,.02-.56.02-.56,0,0-.02.56-.03.56,0,0,.02-.56.02-.56,0,0-.02.56-.03.56,0,0,.02-.56.01-.56,0,0-.02.56-.03.56,0,0,.02-.56.01-.56,0,0-.03.56-.03.56,0,0,.02-.56,0-.56,0,0-.03.56-.03.56,0,0,.01-.56,0-.56s-.03.56-.03.56c0,0,.02-.56.01-.56,0,0-.03.56-.03.56,0,0,.01-.56,0-.56s.25.29.25.3c-.02.2-.57.16-.57.37s.55.23.54.43-.57.18-.58.38.55.23.54.43-.57.18-.58.38.55.23.54.43-.57.18-.58.38.55.23.54.43-.57.18-.58.38.55.23.54.43-.57.18-.58.38.55.23.54.43-.57.18-.58.38.55.23.54.43-.57.18-.58.38.55.22.54.42-.57.18-.57.37.55.22.54.42-.57.18-.57.38.55.22.54.42-.57.18-.58.38.55.23.54.43-.57.18-.58.38.55.23.54.43-.57.18-.58.38.55.23.54.43-.57.18-.58.38.55.23.54.43-.57.18-.58.38.55.23.54.43-.57.18-.58.38.55.23.54.43-.57.18-.58.38.55.23.54.43-.57.18-.58.38.55.23.54.43-.57.18-.58.38.55.23.54.43-.57.18-.58.38.55.23.54.43-.57.18-.58.39.55.23.54.43-.57.18-.58.39.55.23.54.44-.63.31-.56.5c.1.24.53.11.52.32Z"/>
            <path class="cls-1" d="m63.32,36.86s-.29.27-.29.27.02-.56.02-.56-.02.56-.02.56.02-.56.02-.56-.02.56-.02.56.02-.56.03-.56-.02.56-.02.56.02-.56.03-.56-.02.56-.02.56.02-.56.03-.56-.02.56-.02.56.02-.56.03-.56-.02.56-.02.56.02-.56.03-.56-.02.56-.02.56.02-.56.03-.56-.02.56-.01.56.02-.56.03-.56-.02.56-.01.56.02-.56.03-.56-.02.56-.01.56.02-.56.03-.56c0,0-.02.56-.02.56,0,0,.02-.56.02-.56,0,0-.02.56-.02.56,0,0,.02-.56.02-.56,0,0-.02.56-.02.56,0,0,.02-.56.02-.56,0,0-.02.56-.02.56,0,0,.02-.56.03-.56,0,0-.02.56-.02.56,0,0,.02-.56.03-.56,0,0-.02.56-.02.56,0,0,.02-.56.03-.56,0,0-.02.56-.01.56,0,0,.02-.56.03-.56,0,0-.02.56-.01.56,0,0,.03-.56.03-.56,0,0-.02.56,0,.56,0,0,.03-.56.03-.56,0,0-.01.56,0,.56s.03-.56.03-.56c0,0-.02.56-.01.56,0,0,.03-.56.03-.56,0,0-.01.56,0,.56s-.25-.29-.25-.3c.02-.2.57-.16.57-.37s-.55-.23-.54-.43.57-.18.58-.38-.55-.23-.54-.43.57-.18.58-.38-.55-.23-.54-.43.57-.18.58-.38-.55-.23-.54-.43.57-.18.58-.38-.55-.23-.54-.43.57-.18.58-.38-.55-.23-.54-.43.57-.18.58-.38-.55-.23-.54-.43.57-.18.58-.38-.55-.22-.54-.42.57-.18.57-.37-.55-.22-.54-.42.57-.18.57-.38-.55-.22-.54-.42.57-.18.58-.38-.55-.23-.54-.43.57-.18.58-.38-.55-.23-.54-.43.57-.18.58-.38-.55-.23-.54-.43.57-.18.58-.38-.55-.23-.54-.43.57-.18.58-.38-.55-.23-.54-.43.57-.18.58-.38-.55-.23-.54-.43.57-.18.58-.38-.55-.23-.54-.43.57-.18.58-.38-.55-.23-.54-.43.57-.18.58-.38-.55-.23-.54-.43.57-.18.58-.38-.55-.23-.54-.43.57-.18.58-.39-.55-.23-.54-.43.57-.18.58-.39-.55-.23-.54-.44.57-.18.58-.39-.55-.23-.54-.43c0,0,.29-.27.29-.27s-.02.56-.02.56.02-.56.02-.56-.02.56-.02.56.02-.56.02-.56-.02.56-.03.56.02-.56.02-.56-.02.56-.03.56.02-.56.02-.56-.02.56-.03.56.02-.56.02-.56-.02.56-.03.56.02-.56.02-.56-.02.56-.03.56.02-.56.02-.56-.02.56-.03.56.02-.56.01-.56-.02.56-.03.56.02-.56.01-.56-.02.56-.03.56.02-.56.01-.56-.02.56-.03.56c0,0,.02-.56.02-.56,0,0-.02.56-.02.56,0,0,.02-.56.02-.56,0,0-.02.56-.02.56,0,0,.02-.56.02-.56,0,0-.02.56-.02.56,0,0,.02-.56.02-.56,0,0-.02.56-.03.56,0,0,.02-.56.02-.56,0,0-.02.56-.03.56,0,0,.02-.56.02-.56,0,0-.02.56-.03.56,0,0,.02-.56.01-.56,0,0-.02.56-.03.56,0,0,.02-.56.01-.56,0,0-.03.56-.03.56,0,0,.02-.56,0-.56,0,0-.03.56-.03.56,0,0,.01-.56,0-.56s-.03.56-.03.56c0,0,.02-.56.01-.56,0,0-.03.56-.03.56,0,0,.01-.56,0-.56s.25.29.25.3c-.02.2-.57.16-.57.37s.55.23.54.43-.57.18-.58.38.55.23.54.43-.57.18-.58.38.55.23.54.43-.57.18-.58.38.55.23.54.43-.57.18-.58.38.55.23.54.43-.57.18-.58.38.55.23.54.43-.57.18-.58.38.55.23.54.43-.57.18-.58.38.55.22.54.42-.57.18-.57.37.55.22.54.42-.57.18-.57.38.55.22.54.42-.57.18-.58.38.55.23.54.43-.57.18-.58.38.55.23.54.43-.57.18-.58.38.55.23.54.43-.57.18-.58.38.55.23.54.43-.57.18-.58.38.55.23.54.43-.57.18-.58.38.55.23.54.43-.57.18-.58.38.55.23.54.43-.57.18-.58.38.55.23.54.43-.57.18-.58.38.55.23.54.43-.57.18-.58.38.55.23.54.43-.57.18-.58.39.55.23.54.43-.57.18-.58.39.55.23.54.44-.63.31-.56.5c.1.24.53.11.52.32Z"/>
          </g>
          <path class="cls-2" d="m65.42,35.99h.15c.56.03,1.03-.38,1.06-.91l.75-17.46c.02-.53-.41-.97-.97-.99h-.15c-.56-.03-1.03.38-1.06.91l-.75,17.46c-.02.53.41.97.97.99Z"/>
        </g>
      </g>
      <g>
        <polygon class="cls-3" points="62.61 22.18 69.21 22.43 69.24 21.55 62.64 21.3 62.61 22.18"/>
        <path class="cls-3" d="m62.62,23.4l6.43.24c.2,0,.36-.14.37-.32l.03-.69c0-.19-.15-.34-.34-.35l-6.43-.24c-.2,0-.36.14-.37.32l-.03.69c0,.19.15.34.34.35Z"/>
        <path class="cls-3" d="m62.71,21.51l6.43.24c.2,0,.36-.14.37-.32l.03-.69c0-.19-.15-.34-.34-.35l-6.43-.24c-.2,0-.36.14-.37.32l-.03.69c0,.19.15.34.34.35Z"/>
      </g>
      <g>
        <g>
          <g>
            <g>
              <path class="cls-5" d="m69.93,5.56l11.21.42c2.14.28,1.57-.55,1.57-.55-.56-.55-1.28-1.42-1.87-1.61l-10.82-.39c-.63-.02-1.15.43-1.18,1.02h0c-.03.59.46,1.08,1.09,1.11Z"/>
              <g>
                <polygon class="cls-11" points="69.87 5.45 70.16 5.74 70.48 5.48 70.78 5.77 71.1 5.5 71.4 5.79 71.72 5.52 72.02 5.81 72.34 5.55 72.64 5.84 72.95 5.57 73.25 5.86 73.57 5.59 73.87 5.88 74.19 5.62 74.49 5.91 74.81 5.64 75.11 5.93 75.43 5.66 75.74 5.95 76.06 5.69 76.36 5.98 76.68 5.71 76.99 6 77.31 5.73 77.61 6.02 77.93 5.76 78.24 6.05 78.56 5.78 78.87 6.07 79.19 5.8 79.5 6.09 79.82 5.83 80.12 6.12 80.44 5.85 80.75 6.14 81.08 5.87 81.38 6.17 81.7 5.9 82.01 6.19 82.34 5.92 82.66 6.21 82.52 6.06 82.8 6.07 82.52 6.05 82.8 6.06 82.52 6.04 82.8 6.05 82.52 6.03 82.8 6.03 82.52 6.01 82.8 6.02 82.52 6 82.8 6 82.52 5.98 82.8 5.99 82.52 5.97 82.8 5.97 82.52 5.95 82.8 5.95 82.53 5.93 82.8 5.93 82.53 5.91 82.81 5.91 82.53 5.9 82.81 5.9 82.53 5.89 82.81 5.9 82.53 5.88 82.81 5.88 82.53 5.86 82.81 5.87 82.53 5.85 82.81 5.85 82.53 5.83 82.81 5.83 82.53 5.8 82.81 5.8 82.53 5.77 82.81 5.77 82.53 5.75 82.81 5.74 82.66 5.86 82.37 5.57 82.05 5.83 81.74 5.54 81.42 5.81 81.13 5.52 80.81 5.79 80.51 5.5 80.19 5.76 79.89 5.47 79.57 5.74 79.28 5.45 78.96 5.72 78.66 5.43 78.34 5.69 78.04 5.4 77.72 5.67 77.42 5.38 77.09 5.65 76.79 5.36 76.47 5.62 76.17 5.33 75.84 5.6 75.54 5.31 75.22 5.58 74.92 5.29 74.59 5.55 74.29 5.26 73.96 5.53 73.66 5.24 73.34 5.51 73.03 5.21 72.71 5.48 72.41 5.19 72.08 5.46 71.78 5.17 71.45 5.43 71.15 5.14 70.82 5.41 70.52 5.12 70.18 5.39 69.87 5.1 70.01 5.25 69.73 5.24 70.01 5.26 69.73 5.25 70.01 5.27 69.73 5.26 70.01 5.28 69.73 5.28 70.01 5.29 69.73 5.29 70.01 5.31 69.73 5.31 70.01 5.32 69.73 5.32 70 5.34 69.73 5.34 70 5.36 69.72 5.36 70 5.38 69.72 5.38 70 5.4 69.72 5.4 70 5.41 69.72 5.4 70 5.42 69.72 5.41 70 5.43 69.72 5.43 70 5.44 69.72 5.44 70 5.46 69.72 5.46 70 5.48 69.72 5.48 70 5.51 69.72 5.51 70 5.54 69.72 5.54 69.99 5.56 69.99 5.59 69.87 5.45"/>
                <polygon class="cls-6" points="69.87 5.45 70.16 5.74 70.48 5.48 70.78 5.77 71.1 5.5 71.4 5.79 71.72 5.52 72.02 5.81 72.34 5.55 72.64 5.84 72.95 5.57 73.25 5.86 73.57 5.59 73.87 5.88 74.19 5.62 74.49 5.91 74.81 5.64 75.11 5.93 75.43 5.66 75.74 5.95 76.06 5.69 76.36 5.98 76.68 5.71 76.99 6 77.31 5.73 77.61 6.02 77.93 5.76 78.24 6.05 78.56 5.78 78.87 6.07 79.19 5.8 79.5 6.09 79.82 5.83 80.12 6.12 80.44 5.85 80.75 6.14 81.08 5.87 81.38 6.17 81.7 5.9 82.01 6.19 82.34 5.92 82.66 6.21 82.52 6.06 82.8 6.07 82.52 6.05 82.8 6.06 82.52 6.04 82.8 6.05 82.52 6.03 82.8 6.03 82.52 6.01 82.8 6.02 82.52 6 82.8 6 82.52 5.98 82.8 5.99 82.52 5.97 82.8 5.97 82.52 5.95 82.8 5.95 82.53 5.93 82.8 5.93 82.53 5.91 82.81 5.91 82.53 5.9 82.81 5.9 82.53 5.89 82.81 5.9 82.53 5.88 82.81 5.88 82.53 5.86 82.81 5.87 82.53 5.85 82.81 5.85 82.53 5.83 82.81 5.83 82.53 5.8 82.81 5.8 82.53 5.77 82.81 5.77 82.53 5.75 82.81 5.74 82.66 5.86 82.37 5.57 82.05 5.83 81.74 5.54 81.42 5.81 81.13 5.52 80.81 5.79 80.51 5.5 80.19 5.76 79.89 5.47 79.57 5.74 79.28 5.45 78.96 5.72 78.66 5.43 78.34 5.69 78.04 5.4 77.72 5.67 77.42 5.38 77.09 5.65 76.79 5.36 76.47 5.62 76.17 5.33 75.84 5.6 75.54 5.31 75.22 5.58 74.92 5.29 74.59 5.55 74.29 5.26 73.96 5.53 73.66 5.24 73.34 5.51 73.03 5.21 72.71 5.48 72.41 5.19 72.08 5.46 71.78 5.17 71.45 5.43 71.15 5.14 70.82 5.41 70.52 5.12 70.18 5.39 69.87 5.1 70.01 5.25 69.73 5.24 70.01 5.26 69.73 5.25 70.01 5.27 69.73 5.26 70.01 5.28 69.73 5.28 70.01 5.29 69.73 5.29 70.01 5.31 69.73 5.31 70.01 5.32 69.73 5.32 70 5.34 69.73 5.34 70 5.36 69.72 5.36 70 5.38 69.72 5.38 70 5.4 69.72 5.4 70 5.41 69.72 5.4 70 5.42 69.72 5.41 70 5.43 69.72 5.43 70 5.44 69.72 5.44 70 5.46 69.72 5.46 70 5.48 69.72 5.48 70 5.51 69.72 5.51 70 5.54 69.72 5.54 69.99 5.56 69.99 5.59 69.87 5.45"/>
              </g>
            </g>
            <g>
              <polygon class="cls-9" points="70.68 9.62 80.82 12.52 81.65 9.97 71.51 7.07 70.68 9.62"/>
              <g>
                <polygon class="cls-11" points="71.39 7.28 71.55 7.61 71.87 7.41 72.04 7.75 72.36 7.55 72.53 7.89 72.85 7.69 73.02 8.03 73.34 7.83 73.51 8.17 73.83 7.97 74 8.31 74.32 8.11 74.48 8.45 74.8 8.25 74.97 8.59 75.3 8.39 75.47 8.73 75.79 8.53 75.96 8.87 76.29 8.67 76.46 9.01 76.78 8.81 76.95 9.15 77.27 8.95 77.45 9.29 77.77 9.1 77.94 9.44 78.26 9.24 78.43 9.58 78.75 9.38 78.93 9.72 79.25 9.52 79.43 9.86 79.75 9.66 79.92 10 80.25 9.8 80.42 10.14 80.75 9.95 80.93 10.29 81.26 10.09 81.44 10.43 81.35 10.25 81.61 10.33 81.35 10.24 81.62 10.32 81.36 10.22 81.62 10.3 81.36 10.21 81.63 10.28 81.37 10.19 81.63 10.27 81.37 10.17 81.64 10.25 81.38 10.15 81.65 10.23 81.38 10.13 81.65 10.21 81.39 10.11 81.66 10.18 81.4 10.09 81.67 10.16 81.41 10.06 81.68 10.14 81.41 10.04 81.68 10.11 81.42 10.02 81.69 10.09 81.43 10 81.7 10.08 81.43 9.98 81.7 10.06 81.44 9.97 81.71 10.04 81.44 9.94 81.71 10.02 81.45 9.92 81.73 9.99 81.46 9.88 81.74 9.95 81.47 9.85 81.75 9.92 81.57 9.99 81.41 9.66 81.09 9.85 80.92 9.51 80.6 9.71 80.43 9.37 80.11 9.57 79.94 9.24 79.62 9.43 79.45 9.1 79.13 9.29 78.96 8.96 78.64 9.16 78.48 8.82 78.15 9.02 77.99 8.68 77.66 8.88 77.49 8.54 77.17 8.74 77 8.4 76.67 8.59 76.5 8.25 76.18 8.45 76.01 8.11 75.68 8.31 75.51 7.97 75.19 8.17 75.02 7.83 74.7 8.03 74.53 7.69 74.2 7.89 74.03 7.55 73.71 7.75 73.53 7.41 73.21 7.61 73.04 7.27 72.71 7.46 72.54 7.12 72.21 7.32 72.03 6.98 71.7 7.17 71.52 6.83 71.61 7.02 71.35 6.94 71.61 7.03 71.34 6.95 71.6 7.04 71.34 6.97 71.6 7.06 71.33 6.98 71.59 7.08 71.33 7 71.59 7.09 71.32 7.02 71.58 7.11 71.31 7.04 71.58 7.13 71.31 7.06 71.57 7.16 71.3 7.08 71.56 7.18 71.29 7.11 71.55 7.2 71.28 7.13 71.55 7.23 71.28 7.15 71.54 7.25 71.27 7.18 71.53 7.27 71.26 7.19 71.53 7.28 71.26 7.2 71.52 7.3 71.25 7.22 71.51 7.32 71.24 7.25 71.51 7.35 71.23 7.28 71.49 7.38 71.22 7.31 71.49 7.41 71.48 7.44 71.39 7.28"/>
                <polygon class="cls-8" points="71.39 7.28 71.55 7.61 71.87 7.41 72.04 7.75 72.36 7.55 72.53 7.89 72.85 7.69 73.02 8.03 73.34 7.83 73.51 8.17 73.83 7.97 74 8.31 74.32 8.11 74.48 8.45 74.8 8.25 74.97 8.59 75.3 8.39 75.47 8.73 75.79 8.53 75.96 8.87 76.29 8.67 76.46 9.01 76.78 8.81 76.95 9.15 77.27 8.95 77.45 9.29 77.77 9.1 77.94 9.44 78.26 9.24 78.43 9.58 78.75 9.38 78.93 9.72 79.25 9.52 79.43 9.86 79.75 9.66 79.92 10 80.25 9.8 80.42 10.14 80.75 9.95 80.93 10.29 81.26 10.09 81.44 10.43 81.35 10.25 81.61 10.33 81.35 10.24 81.62 10.32 81.36 10.22 81.62 10.3 81.36 10.21 81.63 10.28 81.37 10.19 81.63 10.27 81.37 10.17 81.64 10.25 81.38 10.15 81.65 10.23 81.38 10.13 81.65 10.21 81.39 10.11 81.66 10.18 81.4 10.09 81.67 10.16 81.41 10.06 81.68 10.14 81.41 10.04 81.68 10.11 81.42 10.02 81.69 10.09 81.43 10 81.7 10.08 81.43 9.98 81.7 10.06 81.44 9.97 81.71 10.04 81.44 9.94 81.71 10.02 81.45 9.92 81.73 9.99 81.46 9.88 81.74 9.95 81.47 9.85 81.75 9.92 81.57 9.99 81.41 9.66 81.09 9.85 80.92 9.51 80.6 9.71 80.43 9.37 80.11 9.57 79.94 9.24 79.62 9.43 79.45 9.1 79.13 9.29 78.96 8.96 78.64 9.16 78.48 8.82 78.15 9.02 77.99 8.68 77.66 8.88 77.49 8.54 77.17 8.74 77 8.4 76.67 8.59 76.5 8.25 76.18 8.45 76.01 8.11 75.68 8.31 75.51 7.97 75.19 8.17 75.02 7.83 74.7 8.03 74.53 7.69 74.2 7.89 74.03 7.55 73.71 7.75 73.53 7.41 73.21 7.61 73.04 7.27 72.71 7.46 72.54 7.12 72.21 7.32 72.03 6.98 71.7 7.17 71.52 6.83 71.61 7.02 71.35 6.94 71.61 7.03 71.34 6.95 71.6 7.04 71.34 6.97 71.6 7.06 71.33 6.98 71.59 7.08 71.33 7 71.59 7.09 71.32 7.02 71.58 7.11 71.31 7.04 71.58 7.13 71.31 7.06 71.57 7.16 71.3 7.08 71.56 7.18 71.29 7.11 71.55 7.2 71.28 7.13 71.55 7.23 71.28 7.15 71.54 7.25 71.27 7.18 71.53 7.27 71.26 7.19 71.53 7.28 71.26 7.2 71.52 7.3 71.25 7.22 71.51 7.32 71.24 7.25 71.51 7.35 71.23 7.28 71.49 7.38 71.22 7.31 71.49 7.41 71.48 7.44 71.39 7.28"/>
              </g>
            </g>
            <path class="cls-5" d="m80.8,4.04c.11,0,.14-.14.04-.18l-6.92-2.7s-3.63-1.58-7.47-.96c-.02,0-.03,0-.04.02-.22.16-2.33,1.73-2.39,3.29l-.17,6.29c0,.05.04.09.1.1l5.16.19c.05,0,.1-.04.1-.09l.39-6.12c0-.05.05-.09.1-.09l11.1.26Z"/>
          </g>
          <path class="cls-5" d="m70.53,9.32l-8.02.2c-.25,0-.48.13-.6.33-.28.47-.64,1.6-.73,4.35l-.12,3.89c0,.12.03.24.09.34.17.29.58.81,1.39.87l6.72.12c.38,0,.68.29.7.64.03.8.06,2.19,0,3-.03.36-.36.64-.75.62-.48-.03-1.16-.06-1.68-.09-.4-.02-.73.27-.75.65h0c0,.26.14.5.39.61l2.23,1.05c.24.11.39.34.39.59,0,0,.19,17.91.37,28.24.29,16.97.12,22.1.12,22.1-.21,1.53,1.27,2.95,2.66,2.95l1.59.15c.7-.16,1.5-.22,2.23-.99.86-.9.4-10.55.67-19.53.26-8.81,2.06-39.03,2.06-39.03,0-.02,0-.03,0-.05l1.29-7.59c.06-.33-.16-.65-.5-.74l-9.54-2.67c-.07-.02-.15-.03-.22-.03Z"/>
        </g>
        <rect class="cls-10" x="71.68" y="14.76" width="4.74" height="63.73" rx="2.29" ry="2.29" transform="translate(147.88 93.6) rotate(-179.73)"/>
      </g>
      <rect class="cls-7" x="72.44" y="69.63" width="2.98" height="7.58" rx="1.44" ry="1.44" transform="translate(147.55 147.17) rotate(-179.75)"/>
    </g>
    <path class="cls-12" d="m.07,8.04h29.96c1.77,0,3.71.06,5.82.17,2.11.11,4,.25,5.68.42,1.68.17,3.07.37,4.17.59,3.95.79,6.98,2.2,9.07,4.23,2.1,2.03,3.14,4.56,3.14,7.57,0,2.07-.5,3.91-1.51,5.53-1.01,1.62-2.49,2.98-4.44,4.09-1.95,1.11-4.34,1.96-7.17,2.54-2.83.58-6.01.88-9.56.88h-13.76v11.19c0,5.75,3.04,8.63,9.13,8.63h2.52v1.25H0v-1.25h1.76c6.08,0,9.13-2.88,9.13-8.63v-27.4c0-5.71-3.04-8.56-9.13-8.56H.07v-1.25Zm21.41,1.25v23.46h10.02c4.96,0,8.62-.96,10.99-2.88,2.37-1.92,3.56-4.89,3.56-8.91,0-4.7-1.64-7.96-4.92-9.81-1.17-.65-2.55-1.12-4.13-1.42-1.58-.29-3.55-.44-5.89-.44h-9.63Z"/>
    <path class="cls-12" d="m109.91,6.94h1.33l20.19,41.18c.65,1.28,1.37,2.34,2.17,3.17.8.83,1.71,1.43,2.71,1.8,1.01.37,2.19.56,3.56.56h1.33v1.31h-29.14v-1.31h3.81c1.89,0,3.28-.24,4.15-.72.87-.48,1.31-1.23,1.31-2.24,0-.63-.17-1.39-.52-2.29-.35-.9-1.11-2.53-2.28-4.89-.07-.13-.18-.36-.32-.67-.14-.31-.3-.62-.47-.91l-.83-1.72h-21.27l-1.62,3.5c-.53,1.19-.79,2.39-.79,3.61,0,1.03.31,2.06.92,3.07s1.41,1.78,2.39,2.29c.65.36,1.23.6,1.74.72.51.12,1.25.21,2.21.25v1.31h-20.44v-1.31c1.48-.16,2.66-.4,3.54-.74.87-.34,1.85-.9,2.93-1.69,2.54-1.84,5.02-5.31,7.44-10.41l15.95-33.87Zm-3.81,11.02l-9.84,21h19.94l-10.1-21Z"/>
    <ellipse class="cls-12" cx="49.36" cy="52.09" rx="3.23" ry="3.03"/>
    <ellipse class="cls-12" cx="146.29" cy="52.09" rx="3.23" ry="3.03"/>
    <g>
      <path class="cls-12" d="m.02,60.25h7.34c.43,0,.91.01,1.43.04.52.03.98.06,1.39.1.41.04.75.09,1.02.14.97.19,1.71.53,2.22,1.02.51.49.77,1.09.77,1.82,0,.5-.12.94-.37,1.33-.25.39-.61.72-1.09.98-.48.27-1.06.47-1.76.61-.69.14-1.47.21-2.34.21h-3.37v2.69c0,1.38.74,2.07,2.23,2.07h.62v.3H0v-.3h.43c1.49,0,2.23-.69,2.23-2.07v-6.58c0-1.37-.74-2.05-2.23-2.05H.02v-.3Zm5.24.3v5.63h2.45c1.21,0,2.11-.23,2.69-.69.58-.46.87-1.17.87-2.14,0-1.13-.4-1.91-1.21-2.35-.29-.16-.62-.27-1.01-.34s-.87-.11-1.44-.11h-2.36Z"/>
      <path class="cls-12" d="m15.35,60.25h8.38v.3h-.89c-.76,0-1.32.17-1.68.5s-.55.85-.55,1.55v8.65h3.19c.63,0,1.22-.13,1.78-.38.56-.26,1.04-.61,1.45-1.07.25-.29.46-.57.65-.85.19-.28.37-.62.54-1.02.17-.4.34-.86.5-1.38h.33v5h-13.7l-.02-.3h.46c1.49,0,2.23-.69,2.23-2.07v-6.58c0-1.37-.74-2.05-2.23-2.05h-.44v-.3Z"/>
      <path class="cls-12" d="m30.37,60.25h8.53v.3h-.98c-.75,0-1.31.17-1.68.51-.37.34-.55.85-.55,1.55v5.74c0,.65.16,1.21.49,1.68.33.47.8.83,1.42,1.08.62.25,1.35.38,2.2.38.74,0,1.44-.1,2.09-.3.65-.2,1.16-.47,1.54-.81.7-.66,1.05-1.58,1.05-2.77v-4.04c0-1.29-.41-2.17-1.23-2.64-.23-.13-.48-.23-.74-.28-.26-.05-.63-.09-1.12-.1v-.3h5.97v.3c-.37.03-.66.07-.88.14s-.44.17-.67.32c-.33.23-.59.54-.77.93-.18.39-.26.84-.26,1.36v4.51c0,1.2-.36,2.11-1.06,2.75-.39.35-.81.59-1.26.74-.94.32-2.06.49-3.35.49-.96,0-1.82-.09-2.6-.26-.78-.17-1.43-.42-1.94-.74-.96-.61-1.44-1.48-1.44-2.62v-5.57c0-1.37-.75-2.05-2.23-2.05h-.5v-.3Z"/>
      <path class="cls-12" d="m48.08,60.25h5.14l4.63,8.65,4.59-8.65h4.85v.3h-.45c-.76,0-1.32.17-1.68.51-.37.34-.55.85-.55,1.55v6.58c0,.69.18,1.21.55,1.54.37.34.93.51,1.68.51h.45v.32h-7.94v-.32h.53c.75,0,1.31-.17,1.68-.51.37-.34.55-.85.55-1.55v-7.68h-.04l-5.28,10.05h-.3l-5.34-10.02h-.04v7.29c0,.51.11.94.32,1.29.21.35.52.63.93.82.41.19.91.3,1.5.31v.32h-5.77v-.32h.12c.79,0,1.41-.21,1.87-.64s.68-1,.68-1.73v-6.26c0-.7-.18-1.22-.55-1.55-.36-.33-.93-.5-1.69-.5h-.43v-.3Z"/>
    </g>
    <g>
      <path class="cls-12" d="m79.49,59.55h9.56c.74,0,1.46.07,2.15.2s1.23.31,1.62.54c.49.26.86.58,1.13.96.27.38.4.78.4,1.21,0,.7-.42,1.3-1.26,1.81-.34.21-.7.38-1.08.52-.39.14-.93.29-1.63.47v.03c.9.15,1.63.34,2.21.56,1.58.64,2.37,1.52,2.37,2.64,0,.62-.24,1.16-.71,1.62s-1.16.82-2.04,1.06c-.88.25-1.93.37-3.13.37h-9.59v-.33h.38c.8,0,1.4-.18,1.79-.54.39-.36.58-.91.58-1.64v-6.98c0-.74-.19-1.3-.58-1.66-.39-.36-.99-.54-1.79-.54h-.38v-.3Zm5.51.3v5.26h2.83c2.32,0,3.48-.93,3.48-2.79,0-.84-.25-1.46-.74-1.86s-1.26-.61-2.29-.61h-3.28Zm0,5.59v5.8h2.93c1.24,0,2.19-.25,2.85-.76.66-.51.99-1.23.99-2.16,0-.8-.27-1.43-.8-1.9-.41-.37-.9-.63-1.49-.77-.59-.14-1.44-.21-2.57-.21h-1.91Z"/>
      <path class="cls-12" d="m96.73,71.46h.36c.8,0,1.4-.18,1.79-.54.39-.36.58-.91.58-1.64.05-.31.09-.58.12-.82.03-.24.05-.51.05-.82s0-.69,0-1.16c-.02-1.96-.09-3.43-.19-4.42-.04-.4-.11-.71-.21-.94s-.26-.41-.46-.56c-.37-.3-.93-.46-1.68-.46h-.36v-.32h8.22v.32h-.36c-.8,0-1.4.18-1.78.53s-.58.9-.58,1.65v6.98c0,.74.19,1.29.58,1.64.39.36.98.54,1.78.54h.36v.33h-8.22v-.33Z"/>
      <path class="cls-12" d="m106.58,59.67h5.24l9.07,8.64v-5.17c0-.63-.12-1.18-.35-1.65s-.57-.83-1.01-1.08c-.24-.14-.47-.23-.71-.29s-.57-.1-1-.13v-.32h6.46v.32h-.13c-.94,0-1.66.27-2.15.82-.49.55-.74,1.35-.74,2.4v8.58h-.31l-11.26-10.64v7.13c0,.69.09,1.25.27,1.66.18.42.47.74.88.97.33.18.73.3,1.2.35.26.04.64.07,1.12.09v.32h-6.81v-.32c.7-.03,1.27-.15,1.7-.34s.76-.48.97-.85c.21-.38.31-.85.31-1.41v-6.78c0-.42-.1-.77-.3-1.07-.2-.29-.5-.52-.88-.67s-.85-.24-1.4-.24h-.17v-.32Z"/>
      <path class="cls-12" d="m140.1,59.61h.35l.09,5.18h-.31c-.21-.62-.41-1.12-.59-1.49-.18-.37-.38-.69-.6-.97-.61-.82-1.38-1.47-2.31-1.94-.93-.48-1.89-.71-2.87-.71-.51,0-1.02.09-1.52.26-.5.17-.91.4-1.22.69-.52.48-.89,1.13-1.13,1.97-.23.84-.35,1.91-.35,3.24,0,.4.02.79.06,1.18.04.39.09.73.15,1.03.06.3.14.6.23.88.09.29.2.53.31.71.19.3.41.56.66.78.25.22.54.42.87.58.33.17.69.29,1.06.36.37.08.77.12,1.18.12.53,0,1.06-.06,1.59-.18.53-.12.96-.28,1.28-.49.62-.39.92-.91.92-1.56v-.62c0-1.45-.79-2.18-2.37-2.18h-1.13v-.32h8.93v.32h-.3c-.8,0-1.4.18-1.79.54-.39.36-.58.91-.58,1.64v2.82h-.35c-.28-.24-.52-.4-.73-.48-.21-.08-.47-.12-.78-.12-.27,0-.53.02-.76.07-.23.05-.56.15-.98.31-.68.22-1.22.37-1.62.45-.4.08-.89.12-1.47.12-1.1,0-2.12-.15-3.07-.46s-1.77-.73-2.47-1.29c-.7-.56-1.24-1.22-1.63-1.97-.39-.76-.58-1.57-.58-2.44,0-.53.07-1.05.22-1.56.15-.51.36-.99.64-1.43.28-.44.63-.86,1.05-1.25.49-.44,1.02-.81,1.6-1.12.58-.3,1.2-.54,1.85-.7.65-.17,1.3-.25,1.95-.25s1.28.08,1.9.23c.62.15,1.3.4,2.04.73.55.26.94.39,1.17.39s.46-.08.68-.25c.22-.17.47-.43.73-.81Z"/>
    </g>
  </g>
</svg>